<?xml version="1.0" encoding="UTF-8"?>
<svg id="a" data-name="Layer 1" xmlns="http://www.w3.org/2000/svg" viewBox="0 0 100.28 301.31">
  <defs>
    <style>
      .b {
        fill: #fff;
        stroke-width: 0px;
      }
    </style>
  </defs>
  <path class="b" d="M67.48,250.07c0,16.4-5.63,28.88-16.91,37.45-11.27,8.57-24.41,13.06-39.41,13.48l-11.17.32v-25.23c7.83-2.31,13.32-4.99,16.45-8.03,5.64-5.15,8.46-13.54,8.46-25.2v-39.84c.21-13.54,2.76-24.14,7.65-31.81,4.89-7.66,14.43-14.38,28.62-20.16-15.66-7.24-26.17-16.69-31.53-28.35-3.15-6.93-4.73-16.27-4.73-28.03v-36.54c0-12.07-2.4-20.52-7.21-25.35C14.57,29.64,8.67,27.12,0,25.23V0c10.59.11,18.72.74,24.38,1.89,9.33,1.79,17.46,5.41,24.38,10.88,7.55,5.99,12.9,14.09,16.05,24.28,1.78,5.89,2.67,11.51,2.67,16.87v42.26c0,14.93,3.73,26.02,11.19,33.27,4.21,4.21,11.41,8.04,21.6,11.51v19.08c-9.04,2.52-15.97,5.94-20.81,10.25-7.99,7.04-11.98,17.19-11.98,30.43v49.35Z"/>
</svg>