<?xml version="1.0" encoding="UTF-8"?>
<svg id="Layer_1" data-name="Layer 1" xmlns="http://www.w3.org/2000/svg" width="138.67" height="209.96" viewBox="0 0 138.67 209.96">
  <defs>
    <style>
      .cls-1 {
        fill: #fff;
        stroke-width: 0px;
      }
    </style>
  </defs>
  <path class="cls-1" d="M52.15,190.04c-15.5,8.86-27.08,15.5-34.77,19.92V30.08C9.7,25.65,3.9,22.33,0,20.12,15.36,11.13,26.88,4.43,34.57,0c7.81,4.43,13.67,7.75,17.58,9.96v180.08h0ZM86.72,150v40.04c7.68,4.43,13.48,7.75,17.38,9.96,15.36-8.85,26.89-15.49,34.57-19.92-7.68-4.42-13.48-7.75-17.38-9.96v-40.04c-15.37-8.85-26.89-15.56-34.57-20.12-15.37,8.98-26.89,15.69-34.57,20.12,15.36,8.86,26.89,15.5,34.57,19.92h0ZM86.72,43.36v-13.28c15.36-8.85,26.89-15.56,34.57-20.12v80.08c-15.37,8.86-26.89,15.5-34.57,19.92V43.36Z"/>
</svg>