<?xml version="1.0" encoding="UTF-8"?>
<svg id="a" data-name="Layer 1" xmlns="http://www.w3.org/2000/svg" viewBox="0 0 116.49 299.33">
  <defs>
    <style>
      .b {
        fill: #fff;
        stroke-width: 0px;
      }
    </style>
  </defs>
  <path class="b" d="M86.84,81.92v-5.29c.1-2.39.16-4.77.16-7.16,0-18.38-1.53-31.67-4.59-39.87-3.06-8.2-7.29-14.48-12.69-18.84-4.05-3.32-9.55-5.81-16.51-7.48C43.96,1.09,33.42,0,21.58,0H.56v51.08h6.97c6.51,0,11.39,1.38,14.64,4.13,3.25,2.75,5.55,6.98,6.89,12.69.55,2.33.92,7.7,1.11,16.1h.03c-.11,11.16-1.15,19.16-3.1,24-2.08,5.14-5.12,8.96-9.11,11.45-4,2.49-9.99,3.74-17.99,3.74v53.42c7.79.21,13.73,1.46,17.83,3.74,4.1,2.29,7.24,5.97,9.42,11.06,2.18,5.09,3.27,13.65,3.27,25.7,0,2.39-.05,4.73-.16,7.01-.21,3.74-.31,7.48-.31,11.21,0,16.92,1.82,29.61,5.45,38.08,3.63,8.46,9.71,14.9,18.22,19.31,8.51,4.41,22.89,6.62,43.14,6.62h19.62v-50.46c-10.18,0-16.95-.88-20.32-2.65-3.38-1.77-5.79-4.78-7.24-9.03-1.46-4.26-2.18-13.39-2.18-27.41,0-15.57-1.19-26.92-3.58-34.03-2.39-7.11-5.27-12.41-8.64-15.89-3.38-3.48-8.54-6.83-15.5-10.05,6.68-2.91,11.48-5.76,14.41-8.57,3.86-3.74,6.84-8.67,8.93-14.8,2.82-7.99,4.28-18.97,4.38-32.94l.1-11.6Z"/>
</svg>