<?xml version="1.0" encoding="UTF-8"?>
<svg id="Layer_1" data-name="Layer 1" xmlns="http://www.w3.org/2000/svg" viewBox="0 0 104.01 164.94">
  <defs>
    <style>
      .cls-1 {
        isolation: isolate;
      }

      .cls-2 {
        fill: #fff;
        stroke-width: 0px;
      }
    </style>
  </defs>
  <g class="cls-1">
    <g class="cls-1">
      <path class="cls-2" d="M25.93,7.47c5.86,3.32,10.25,5.81,13.18,7.47v135.06c-11.62,6.64-20.31,11.62-26.07,14.94V30.03c-5.77-3.32-10.11-5.81-13.04-7.47,11.52-6.74,20.16-11.77,25.93-15.09ZM65.04,0c11.52,6.64,20.16,11.62,25.93,14.94v60.06c-11.52,6.64-20.17,11.62-25.93,14.94V30.03c-11.52-6.64-20.17-11.67-25.93-15.09,11.52-6.64,20.16-11.62,25.93-14.94ZM65.04,119.97v30.03c5.76,3.32,10.11,5.81,13.04,7.47,11.52-6.64,20.16-11.62,25.93-14.94-5.76-3.32-10.11-5.81-13.04-7.47v-30.03c-11.52-6.64-20.17-11.67-25.93-15.09-11.52,6.74-20.17,11.77-25.93,15.09,11.52,6.64,20.16,11.62,25.93,14.94Z"/>
    </g>
  </g>
</svg>