<?xml version="1.0" encoding="UTF-8"?>
<svg id="a" data-name="Layer 1" xmlns="http://www.w3.org/2000/svg" viewBox="0 0 300.82 301.31">
  <defs>
    <style>
      .b {
        fill: #fff;
        stroke-width: 0px;
      }
    </style>
  </defs>
  <path class="b" d="M268.03,250.07c0,16.4-5.63,28.88-16.91,37.45-11.27,8.57-24.41,13.06-39.41,13.48l-11.17.32v-25.23c7.83-2.31,13.32-4.99,16.45-8.03,5.64-5.15,8.46-13.54,8.46-25.2v-39.84c.21-13.54,2.76-24.14,7.65-31.81,4.89-7.66,14.43-14.38,28.62-20.16-15.66-7.24-26.17-16.69-31.53-28.35-3.15-6.93-4.73-16.27-4.73-28.03v-36.54c0-12.07-2.4-20.52-7.21-25.35-3.13-3.15-9.04-5.67-17.71-7.56V0c10.59.11,18.72.74,24.38,1.89,9.33,1.79,17.46,5.41,24.38,10.88,7.55,5.99,12.9,14.09,16.05,24.28,1.78,5.89,2.67,11.51,2.67,16.87v42.26c0,14.93,3.73,26.02,11.19,33.27,4.21,4.21,11.41,8.04,21.6,11.51v19.08c-9.04,2.52-15.97,5.94-20.81,10.25-7.99,7.04-11.98,17.19-11.98,30.43v49.35Z"/>
  <path class="b" d="M32.8,95.36c0,14.93-3.73,26.02-11.19,33.27-4.21,4.21-11.41,8.04-21.6,11.51v19.08c9.04,2.52,15.97,5.94,20.81,10.25,7.99,7.04,11.98,17.19,11.98,30.43v49.35c0,16.4,5.63,28.88,16.91,37.45,11.27,8.57,24.41,13.06,39.41,13.48l11.17.32v-25.23c-7.83-2.31-13.32-4.99-16.45-8.03-5.64-5.15-8.46-13.54-8.46-25.2v-39.84c-.21-13.54-2.76-24.14-7.65-31.81-4.89-7.66-14.43-14.38-28.62-20.16,15.66-7.24,26.17-16.69,31.53-28.35,3.15-6.93,4.73-16.27,4.73-28.03l-.38-40.41c-.04-5.36-.98-10.98-2.81-16.85-3.23-10.17-8.64-18.22-16.24-24.15-6.97-5.41-15.12-8.97-24.47-10.68C25.79.66,17.66.1,7.06.08l.21,25.23c8.69,1.82,14.61,4.29,17.77,7.41,4.84,4.79,7.31,13.22,7.41,25.29l.34,37.35Z"/>
</svg>