<?xml version="1.0" encoding="UTF-8"?>
<svg id="Layer_1" data-name="Layer 1" xmlns="http://www.w3.org/2000/svg" viewBox="0 0 77.93 104.88">
  <defs>
    <style>
      .cls-1 {
        fill: #fff;
        stroke-width: 0px;
      }
    </style>
  </defs>
  <path class="cls-1" d="M26.07,0v29.88c23.05,13.38,40.33,23.39,51.86,30.03v30.03c-11.52,6.64-20.17,11.62-25.93,14.94v-29.88C28.86,61.62,11.52,51.61,0,44.97V14.94C11.62,8.3,20.31,3.32,26.07,0ZM0,75c11.52-6.74,20.16-11.77,25.93-15.09.1,13.38.15,23.39.15,30.03C14.46,96.58,5.77,101.56.01,104.88v-29.88h-.01ZM77.93,0v29.88c-11.52,6.74-20.17,11.77-25.93,15.09V14.94c11.52-6.64,20.16-11.62,25.93-14.94Z"/>
</svg>